<?xml version="1.0" encoding="UTF-8" standalone="no"?>
<!-- Generator: Adobe Illustrator 24.3.0, SVG Export Plug-In . SVG Version: 6.00 Build 0)  -->

<svg
   xmlns:dc="http://purl.org/dc/elements/1.1/"
   xmlns:cc="http://creativecommons.org/ns#"
   xmlns:rdf="http://www.w3.org/1999/02/22-rdf-syntax-ns#"
   xmlns:svg="http://www.w3.org/2000/svg"
   xmlns="http://www.w3.org/2000/svg"
   xmlns:sodipodi="http://sodipodi.sourceforge.net/DTD/sodipodi-0.dtd"
   xmlns:inkscape="http://www.inkscape.org/namespaces/inkscape"
   version="1.1"
   id="Calque_1"
   x="0px"
   y="0px"
   viewBox="0 0 230.38 232.91"
   style="enable-background:new 0 0 230.38 232.91;"
   xml:space="preserve"
   sodipodi:docname="logo PA.svg"
   inkscape:version="0.92.4 (5da689c313, 2019-01-14)"><metadata
   id="metadata36"><rdf:RDF><cc:Work
       rdf:about=""><dc:format>image/svg+xml</dc:format><dc:type
         rdf:resource="http://purl.org/dc/dcmitype/StillImage" /><dc:title></dc:title></cc:Work></rdf:RDF></metadata><defs
   id="defs34" /><sodipodi:namedview
   pagecolor="#ffffff"
   bordercolor="#666666"
   borderopacity="1"
   objecttolerance="10"
   gridtolerance="10"
   guidetolerance="10"
   inkscape:pageopacity="0"
   inkscape:pageshadow="2"
   inkscape:window-width="1920"
   inkscape:window-height="1017"
   id="namedview32"
   showgrid="false"
   inkscape:zoom="4.0530676"
   inkscape:cx="126.42987"
   inkscape:cy="97.732109"
   inkscape:window-x="-8"
   inkscape:window-y="-8"
   inkscape:window-maximized="1"
   inkscape:current-layer="Calque_1" />
<style
   type="text/css"
   id="style2">
	.st0{fill:none;stroke:#1E1E1C;stroke-width:0.75;stroke-miterlimit:11.3386;}
	.st1{fill:none;stroke:#D2D2D2;stroke-width:0.75;stroke-miterlimit:11.3386;}
	.st2{fill:none;stroke:#D2D2D2;stroke-width:0.4677;stroke-linecap:round;stroke-miterlimit:11.3386;}
	.st3{fill:none;stroke:#D2D2D2;stroke-width:0.75;stroke-linecap:round;stroke-miterlimit:11.3386;}
	.st4{fill:#36AB4C;stroke:#1E1E1C;stroke-linecap:round;stroke-linejoin:round;stroke-miterlimit:11.3386;}
	.st5{fill:#E2CB23;stroke:#D2D2D2;stroke-width:0.2362;stroke-linecap:round;stroke-linejoin:round;stroke-miterlimit:11.3386;}
	.st6{fill:#020203;stroke:#D2D2D2;stroke-width:0.0148;stroke-linecap:round;stroke-linejoin:round;stroke-miterlimit:11.3386;}
	.st7{fill:#3D3D3D;stroke:#D2D2D2;stroke-width:0.0591;stroke-linecap:round;stroke-linejoin:round;stroke-miterlimit:11.3386;}
	.st8{fill:#1C682F;stroke:#D2D2D2;stroke-width:0.0418;stroke-linecap:round;stroke-linejoin:round;stroke-miterlimit:11.3386;}
	.st9{fill:#238D3D;stroke:#D2D2D2;stroke-width:0.0418;stroke-linecap:round;stroke-linejoin:round;stroke-miterlimit:11.3386;}
	.st10{fill:#6EBA75;}
	.st11{fill:url(#path5098-4_2_);stroke:#1E1E1C;stroke-miterlimit:11.3386;}
	.st12{fill:#3F3F3F;}
	.st13{fill:#FFFFFF;}
	.st14{fill:#36AB4C;}
</style>
<path
   id="path832-6-0-6-6-5-7-1_1_"
   class="st0"
   d="m 83.44,63.87 c 0,0 4.73,-1.64 7.2,-1.85 4.37,-0.37 8.77,0.51 13.13,1.07 4.32,0.56 8.92,0.43 12.86,2.28 2.06,0.97 3.71,2.71 5.22,4.42 1.62,1.84 3.08,3.9 4.02,6.16 0.91,2.19 1.26,4.6 1.47,6.96 0.13,1.47 -0.13,4.42 -0.13,4.42 l 2.01,1.21 c 0,0 7.22,0.2 10.45,1.61 3.03,1.32 5.54,3.72 7.77,6.16 3.4,3.71 4.39,9.44 8.3,12.59 0.97,0.78 2.33,0.88 3.48,1.34 1.53,0.61 3.23,0.9 4.55,1.87 1.12,0.83 1.9,2.06 2.68,3.21 0.85,1.26 1.77,2.55 2.14,4.02 0.35,1.39 -0.64,3.01 0,4.29 0.4,0.8 1.66,0.86 2.14,1.61 0.57,0.88 0.26,2.11 0.67,3.08 1.29,3.02 4.19,5.16 5.49,8.17 0.4,0.92 0.56,1.95 0.67,2.95 0.28,2.48 1.05,5.23 0,7.5 -0.96,2.07 -3.35,3.12 -5.22,4.42 -1.43,0.99 -2.95,1.88 -4.55,2.54 -2.44,1.01 -5.01,1.81 -7.63,2.14 -4.61,0.59 -9.32,0.28 -13.93,-0.27 -2.45,-0.29 -4.91,-0.77 -7.23,-1.61 -5.84,-2.1 -16.61,-8.44 -16.61,-8.44 0,0 -3.86,-5.27 -6.16,-7.57 -1.32,-1.32 -2.76,-2.56 -4.35,-3.55 -3.96,-2.45 -8.94,-3.05 -12.72,-5.76 -3.13,-2.24 -7.9,-8.44 -7.9,-8.44"
   inkscape:connector-curvature="0"
   style="fill:none;stroke:#1e1e1c;stroke-width:0.75;stroke-miterlimit:11.33860016"
   sodipodi:nodetypes="ccccccccccccccccscccccccccccsccc" />
<path
   id="path922-1-9-6-2-9_1_"
   class="st1"
   d="m 140.21,128.6 c 2,0.69 3.9,1.88 5.36,3.42 0.88,0.93 1.72,2.08 1.88,3.35 0.09,0.69 -0.14,1.44 -0.54,2.01 -0.62,0.89 -1.64,1.55 -2.68,1.87 -1.77,0.56 -3.83,0.68 -5.56,0 -1.7,-0.67 -3.22,-2.1 -4.02,-3.75 -0.75,-1.55 -0.78,-3.47 -0.4,-5.16 0.19,-0.83 0.52,-1.82 1.27,-2.21 1.4,-0.72 3.2,-0.04 4.69,0.47 z"
   inkscape:connector-curvature="0"
   style="fill:none;stroke:#d2d2d2;stroke-width:0.75;stroke-miterlimit:11.33860016"
   sodipodi:nodetypes="cccccccccc" />
<path
   id="path924-8-3-1-5-2_1_"
   class="st2"
   d="m 140.81,132.22 -0.6,5.22"
   inkscape:connector-curvature="0"
   style="fill:none;stroke:#d2d2d2;stroke-width:0.4677;stroke-linecap:round;stroke-miterlimit:11.33860016"
   sodipodi:nodetypes="cc" />
<path
   id="path1126-0-4-0_1_"
   class="st3"
   d="m 133.09,129.41 c 0,0 1.08,-2.31 2.14,-2.81 0.91,-0.43 2.03,-0.07 3.01,0.13 1.59,0.33 3.11,0.99 4.55,1.74 1.24,0.64 2.43,1.42 3.48,2.34 0.81,0.71 1.51,1.54 2.14,2.41 0.89,1.23 1.5,2.65 2.28,3.95 0.32,0.53 0.71,1.38 0.41,1.77 -1.81,2.41 -7.77,1.37 -7.77,1.37"
   inkscape:connector-curvature="0"
   style="fill:none;stroke:#d2d2d2;stroke-width:0.75;stroke-linecap:round;stroke-miterlimit:11.33860016"
   sodipodi:nodetypes="ccccccccc" />
<path
   id="path1185-7-6_1_"
   class="st1"
   d="m 159.07,139.87 c 0,0 3.63,2.59 5.63,3.55 1.85,0.89 3.8,1.69 5.82,2.04 0.73,0.12 1.53,0.26 2.23,0 0.83,-0.31 1.51,-1.01 1.99,-1.75 0.62,-0.96 0.94,-2.13 0.99,-3.27 0.04,-0.8 -0.47,-2.37 -0.47,-2.37"
   inkscape:connector-curvature="0"
   style="fill:none;stroke:#d2d2d2;stroke-width:0.75;stroke-miterlimit:11.33860016"
   sodipodi:nodetypes="ccccccc" />
<path
   id="path834-7-9-2-1-0-4-8_1_"
   class="st1"
   d="m 91.25,120.41 c 0,0 -4.03,-2.82 -5.02,-4.96 -0.93,-1.99 -0.91,-4.4 -0.54,-6.56 0.31,-1.83 0.99,-3.75 2.28,-5.09 0.55,-0.58 1.69,-0.41 2.14,-1.07 0.86,-1.26 -0.13,-3.12 0.4,-4.55 0.67,-1.8 2.69,-2.88 3.35,-4.69 0.2,-0.55 0.57,-1.36 0.13,-1.74 -2.04,-1.77 -5.39,0.77 -7.9,1.74 -3.02,1.17 -5.74,3.03 -8.44,4.82 -2.81,1.87 -5.49,3.95 -8.04,6.16 -2.5,2.17 -5.82,3.91 -7.1,6.96 -0.28,0.66 0,2.14 0,2.14 l 28.74,6.84"
   inkscape:connector-curvature="0"
   style="fill:none;stroke:#d2d2d2;stroke-width:0.75;stroke-miterlimit:11.33860016"
   sodipodi:nodetypes="cccccccccccccc" />
<path
   id="path4974-4-9_1_"
   class="st4"
   d="M 65.96,196.68 C 58.29,195.97 57.36,183.3 52.48,180.85 47.59,178.4 57.466968,168.95913 53.096968,166.74913 48.726968,164.53913 45.64,171.87 42.86,168.61 40.08,165.35 40,161.18 39.01,157.39 38.05,142.93 38.58,73.92 55.81,67.81 l 9.91,0.21 -2.42,-0.05 c 16.48,-5.6 1.08,-4.95 10.95,-4.09 -0.09,0.09 7.75,-0.13 4.21,0.82 -15.93,4.3 -23.44,7.89 -33.39,15.95 -4.46,3.62 -2.15,12.48 -3.78,15.21 -1.54,2.58 -2.85,5.77 -3.72,9.02 -14.06,15.14 -4.89,28.79 7.14,45.53 4.42,6 13.58,11 21.69,11.84 4.54,0.47 13.501862,-0.76186 13.351862,-1.45186 -0.06,-0.29 -2.255045,-1.2358 -4.870931,-2.02907 -23.83,-13.17 -48.109369,-25.91168 -30.929369,-50.04168 -27.51,8.67 -7.161562,18.68261 -5.901562,2.93261 0,-5.24 0.06,-5.67 1.26,-9.18 1.68,-4.92 -1.98,-9.06 2.92,-13.94 10.7,-10.68 13.93,-19.37 27.76,-23.34 15.49,-4.45 19.72,-2.7 23.25,-2.67 1.88,0.02 4.62,0.21 6.11,0.43 1.49,0.22 5.05,0.66 7.93,0.98 8.38,0.93 9.96,1.58 13.71,5.67 4.06,4.43 5.78,8.78 5.78,14.65 v 3.3 l 1.28,0.79 c 0.82,0.51 1.93,0.79 3.13,0.8 3.12,0.02 7.58,1 9.61,2.11 1.06,0.58 3.18,2.29 4.7,3.8 2.2,2.18 3.21,3.6 4.95,6.93 1.2,2.3 2.85,4.94 3.66,5.87 1.29,1.46 1.96,1.84 5.17,2.9 4.11,1.36 5.6,2.56 7.66,6.15 0.95,1.65 1.13,2.38 1.13,4.54 0,2.47 0.05,2.6 1.15,3.22 0.63,0.35 1.23,1.03 1.33,1.5 0.1,0.47 0.26,1.24 0.35,1.7 0.18,0.86 1.13,2.38 4.13,6.57 1.4,1.96 1.72,2.75 2.09,5.22 0.6,4.04 0.54,6.18 -0.2,7.44 -1.09,1.84 -7.75,5.9 -11.85,7.23 -4.37,1.41 -10.76,1.83 -17.07,1.12 -7.17,-0.81 -10.72,-2.08 -20.26,-7.3 -4.48,-2.45 -5.1,-2.91 -6.82,-5.17 -5.03,-6.6 -7.86,-8.79 -14.77,-11.43 -5.84,-2.23 -7.03,-3.02 -10.66,-7.04 -1.64,-1.82 -4.29,-4.57 -5.89,-6.11 -2.46,-2.37 -2.97,-3.08 -3.35,-4.66 -0.93,-3.86 0.43,-8.38 3,-10.01 1.52,-0.96 1.55,-1.01 1.55,-3.18 0,-2.08 0.11,-2.34 1.89,-4.57 2.22,-2.77 2.51,-4.32 0.92,-5.04 -2.97,-1.35 -14.38,4.91 -25.16,13.82 -2.6,2.15 -5.12,4.48 -5.59,5.18 -0.99,1.47 -1.15,3.72 -0.28,4.06 0.32,0.12 6.82,1.71 14.44,3.52 l 13.87,3.3 2.41,2.81 c 4.49,5.24 6.27,6.45 13.42,9.19 1.99,0.76 4.38,1.87 5.3,2.47 2.16,1.38 5.1,4.36 7.79,7.87 2.07,2.71 2.13,2.85 2.48,6.1 0.2,1.83 0.26,4.79 0.13,6.58 -0.4,5.78 -2.87,14.48 -5.64,19.85 -4.56,8.84 -20.34,18.79 -33.09,20.86 -3.6,0.58 -12.09,0.64 -17.72,0.13 z m 108.22,-51.77 c 0.53,-0.57 1.18,-1.44 1.43,-1.93 0.51,-0.99 0.66,-3.86 0.24,-4.54 -0.57,-0.92 -0.82,-0.36 -0.81,1.81 0.02,2.52 -0.85,4.13 -2.56,4.73 -1.46,0.52 -6.74,-1.33 -10.28,-3.6 -3.2,-2.05 -3.25,-2.07 -3.25,-1.39 0,0.47 3.13,2.62 5.66,3.89 2.41,1.21 5.12,2.02 6.86,2.05 1.42,0.02 1.91,-0.16 2.71,-1.02 z m -25.04,-4.26 c 0.75,-0.21 1.68,-0.73 2.07,-1.16 0.7,-0.77 0.69,-0.83 -0.75,-3.62 -1.83,-3.56 -4.33,-6.15 -7.46,-7.73 -2.4,-1.21 -5.55,-2.24 -6.92,-2.25 -0.97,-0.01 -3.28,2.39 -3.28,3.41 0,0.67 0.1,0.76 0.53,0.41 0.44,-0.37 0.49,-0.05 0.33,1.96 -0.16,1.94 -0.04,2.69 0.59,3.93 1.51,2.95 4.93,5 7.7,4.59 0.64,-0.09 1.13,0.04 1.25,0.35 0.24,0.6 3.92,0.67 5.94,0.11 z"
   inkscape:connector-curvature="0"
   style="fill:#36ab4c;stroke:#1e1e1c;stroke-linecap:round;stroke-linejoin:round;stroke-miterlimit:11.33860016"
   sodipodi:nodetypes="ccsscccccccccccccccccccsccscccccccccscscccccccccccccsccccccccccccccccccccccsccccccccscccccc" />
<path
   id="path4976-3-2_1_"
   class="st5"
   d="m 138.02,138.35 c -2.11,-1.12 -3.42,-3.32 -3.42,-5.76 0,-3.97 0.96,-4.81 4.35,-3.82 5.86,1.71 9.59,6.36 7.02,8.76 -1.87,1.75 -5.47,2.13 -7.95,0.82 z m 2.9,-3.86 c 0.29,-3 -0.31,-3.51 -0.66,-0.57 -0.34,2.79 -0.31,3.91 0.09,3.49 0.18,-0.2 0.44,-1.51 0.57,-2.92 z"
   inkscape:connector-curvature="0"
   style="fill:#e2cb23;stroke:#d2d2d2;stroke-width:0.2362;stroke-linecap:round;stroke-linejoin:round;stroke-miterlimit:11.33860016"
   sodipodi:nodetypes="csccccccc" />
<path
   id="path4978-0-6_1_"
   class="st6"
   d="m 140.07,137.54 c -0.1,-0.1 -0.12,-0.21 -0.14,-0.72 -0.01,-0.51 0.01,-0.94 0.1,-1.84 0.2,-1.95 0.38,-2.86 0.63,-3.06 0.18,-0.15 0.31,-0.02 0.39,0.36 0.05,0.23 0.05,1.39 0.01,1.87 -0.15,1.57 -0.39,2.89 -0.6,3.26 -0.06,0.11 -0.18,0.19 -0.27,0.19 -0.03,0.01 -0.08,-0.02 -0.12,-0.06 z m 0.56,-1.7 c -0.01,-0.02 -0.01,-0.01 -0.01,0.03 0,0.04 0,0.06 0.01,0.04 z m 0.17,-1.28 c 0.03,-0.28 0.05,-0.53 0.04,-0.56 -0.01,-0.06 -0.21,1.69 -0.21,1.76 0.02,0.07 0.12,-0.71 0.17,-1.2 z m -0.5,0.08 c -0.01,-0.02 -0.01,-0.01 -0.01,0.01 0,0.03 0,0.04 0.01,0.03 z m 0.02,-0.21 c -0.01,-0.02 -0.01,0 -0.01,0.03 0,0.03 0.01,0.05 0.01,0.03 0.01,-0.02 0.01,-0.05 0,-0.06 z m 0.02,-0.22 c -0.01,-0.02 -0.01,0 -0.01,0.03 0,0.03 0.01,0.05 0.01,0.03 0.01,-0.01 0.01,-0.04 0,-0.06 z m 0.03,-0.2 c -0.01,-0.02 -0.01,-0.01 -0.01,0.03 0,0.04 0,0.06 0.01,0.04 z"
   inkscape:connector-curvature="0"
   style="fill:#020203;stroke:#d2d2d2;stroke-width:0.0148;stroke-linecap:round;stroke-linejoin:round;stroke-miterlimit:11.33860016"
   sodipodi:nodetypes="scccccccscscccccccscccsccsscscscc" />
<path
   id="path4980-7-6_1_"
   class="st7"
   d="m 144.46,140.06 c -0.13,-0.02 -0.43,-0.07 -0.66,-0.1 l -0.43,-0.06 0.71,-0.21 c 1.08,-0.31 1.86,-0.77 2.62,-1.53 0.86,-0.86 1.12,-1.45 1.12,-2.55 0,-0.63 -0.05,-0.87 -0.29,-1.44 -1.05,-2.46 -4,-4.84 -7.52,-6.07 -1.94,-0.68 -3.14,-0.83 -4.16,-0.53 -0.72,0.21 -1.38,0.9 -1.72,1.79 -0.14,0.36 -0.25,0.58 -0.26,0.48 0,-0.1 -0.07,-0.26 -0.16,-0.35 -0.14,-0.16 -0.12,-0.22 0.31,-0.91 0.55,-0.88 1.01,-1.4 1.4,-1.61 0.45,-0.24 1.43,-0.17 2.9,0.2 3.2,0.8 6.16,2.42 8.24,4.51 1.26,1.27 1.77,1.97 2.9,4.04 1.31,2.39 1.36,2.51 1.36,2.79 0,0.47 -0.96,1.09 -2.11,1.38 -0.59,0.14 -3.7,0.27 -4.25,0.17 z"
   inkscape:connector-curvature="0"
   style="fill:#3d3d3d;stroke:#d2d2d2;stroke-width:0.0591;stroke-linecap:round;stroke-linejoin:round;stroke-miterlimit:11.33860016"
   sodipodi:nodetypes="ccccsscccccccccccscc" />
<path
   id="path4982-8-4_1_"
   class="st8"
   d="m 170.66,145.96 c -1.74,-0.22 -4.04,-0.99 -6.13,-2.03 -2.2,-1.1 -5.17,-3.1 -5.56,-3.73 -0.14,-0.23 -0.12,-0.5 0.05,-0.63 0.19,-0.15 0.55,0.04 2.73,1.42 2.34,1.48 4.28,2.42 6.6,3.21 1.59,0.54 2.44,0.73 3.32,0.73 0.71,0.01 0.76,0 1.2,-0.22 1.47,-0.72 2.11,-2.25 2.11,-5.04 0,-1.19 0.15,-1.73 0.47,-1.73 0.16,0 0.37,0.25 0.55,0.64 0.14,0.31 0.15,0.42 0.15,1.54 0,1.93 -0.19,2.62 -1.04,3.81 -0.61,0.86 -1.37,1.61 -1.83,1.82 -0.61,0.26 -1.56,0.34 -2.62,0.21 z m 2.22,-0.95 c 0.19,-0.1 0.37,-0.21 0.39,-0.25 0.02,-0.04 -0.15,0.03 -0.38,0.15 -0.4,0.21 -0.46,0.22 -1.13,0.22 -0.83,0 -1.65,-0.17 -3.04,-0.61 -1.69,-0.54 -3.8,-1.46 -5.35,-2.33 -0.67,-0.38 -0.54,-0.23 0.17,0.18 2.81,1.65 6.43,2.88 8.32,2.83 0.57,-0.01 0.72,-0.04 1.02,-0.19 z m 0.63,-0.43 c 0.08,-0.11 0.08,-0.11 -0.03,-0.03 -0.11,0.09 -0.15,0.14 -0.09,0.14 0.02,0 0.07,-0.05 0.12,-0.11 z m 1.67,-2.8 c 0.18,-0.72 0.23,-1.5 0.13,-2.09 -0.05,-0.27 -0.09,-0.48 -0.11,-0.46 -0.02,0.02 -0.05,0.58 -0.09,1.26 -0.06,1.13 -0.12,1.56 -0.37,2.37 -0.02,0.07 0.04,-0.02 0.13,-0.21 0.1,-0.2 0.23,-0.59 0.31,-0.87 z m -12.33,0.14 c 0,-0.02 -0.07,-0.06 -0.15,-0.1 -0.14,-0.07 -0.15,-0.07 -0.02,0.03 0.14,0.1 0.17,0.12 0.17,0.07 z m -3.68,-2.19 c 0,-0.04 -0.03,-0.05 -0.07,-0.03 -0.04,0.02 -0.07,0.07 -0.07,0.11 0,0.04 0.03,0.05 0.07,0.03 0.04,-0.02 0.07,-0.07 0.07,-0.11 z"
   inkscape:connector-curvature="0"
   style="fill:#1c682f;stroke:#d2d2d2;stroke-width:0.0418;stroke-linecap:round;stroke-linejoin:round;stroke-miterlimit:11.33860016"
   sodipodi:nodetypes="ccccccccsscsccccscscccccccscccsccccsscssssss" />
<path
   id="path4984-6-9_1_"
   class="st9"
   d="m 144.75,141.08 c -0.92,-0.08 -1.36,-0.22 -1.64,-0.52 l -0.22,-0.25 -1.25,-0.01 c -1.11,-0.01 -1.32,-0.03 -1.89,-0.18 -2.44,-0.65 -4.61,-2.46 -5.69,-4.75 -0.41,-0.88 -0.49,-1.28 -0.5,-2.4 0,-0.53 0.02,-1.49 0.06,-2.13 0.07,-1.26 0.06,-1.3 -0.29,-1.02 -0.4,0.31 -0.64,0.06 -0.58,-0.59 0.06,-0.63 0.68,-1.54 1.65,-2.44 0.75,-0.69 1.19,-0.94 1.71,-0.98 1.12,-0.07 4.14,0.88 6.57,2.06 1.81,0.89 3.1,1.79 4.41,3.11 1.58,1.58 2.67,3.2 3.99,5.88 0.5,1.01 0.61,1.3 0.64,1.63 0.03,0.36 0.02,0.42 -0.19,0.72 -0.43,0.64 -1.6,1.32 -2.68,1.58 -1.08,0.26 -2.93,0.39 -4.1,0.29 z m 1.11,-0.19 c -0.16,-0.01 -0.41,-0.01 -0.57,0 -0.16,0.01 -0.03,0.03 0.28,0.03 0.32,0 0.45,-0.01 0.29,-0.03 z m -1.1,-0.06 c -0.06,-0.02 -0.18,-0.02 -0.27,0 -0.08,0.02 -0.03,0.03 0.12,0.03 0.14,0 0.21,-0.01 0.15,-0.03 z m -1.5,-0.86 c 0.22,-0.12 0.26,-0.12 0.2,-0.02 -0.03,0.05 0.02,0.06 0.18,0.03 0.13,-0.02 0.26,-0.02 0.28,0.01 0.03,0.03 0.13,0.05 0.23,0.06 0.1,0 0.54,0.01 0.98,0.02 0.57,0.01 0.76,0.04 0.67,0.08 -0.14,0.06 1.04,0.03 1.91,-0.05 0.32,-0.03 0.4,-0.06 0.3,-0.1 -0.09,-0.04 -0.05,-0.05 0.13,-0.03 0.14,0.02 0.31,0.01 0.37,-0.03 0.14,-0.07 0.76,-0.24 0.83,-0.22 0.03,0.01 0.05,-0.02 0.05,-0.06 0,-0.04 0.05,-0.06 0.1,-0.04 0.06,0.02 0.1,0.01 0.1,-0.03 0,-0.04 0.03,-0.05 0.07,-0.03 0.04,0.02 0.07,0.01 0.07,-0.03 0,-0.04 0.03,-0.06 0.07,-0.03 0.04,0.02 0.07,0.01 0.07,-0.04 0,-0.05 0.02,-0.06 0.04,-0.04 0.02,0.02 0.08,0 0.12,-0.05 0.04,-0.05 0.11,-0.1 0.16,-0.12 0.14,-0.03 0.68,-0.58 0.68,-0.69 0,-0.06 -0.05,-0.19 -0.1,-0.3 -0.06,-0.11 -0.08,-0.23 -0.06,-0.27 0.03,-0.05 0.02,-0.06 -0.03,-0.03 -0.08,0.05 -0.08,0.04 -0.11,-0.22 -0.01,-0.09 -0.06,-0.2 -0.12,-0.24 -0.06,-0.04 -0.09,-0.1 -0.06,-0.12 0.02,-0.02 0.01,-0.04 -0.04,-0.04 -0.05,0 -0.07,-0.03 -0.04,-0.06 0.02,-0.03 0.01,-0.07 -0.02,-0.08 -0.07,-0.03 -1.16,-2 -1.17,-2.12 0,-0.05 -0.03,-0.08 -0.06,-0.08 -0.03,0 -0.04,-0.03 -0.02,-0.06 0.02,-0.03 -0.01,-0.08 -0.07,-0.1 -0.06,-0.02 -0.09,-0.07 -0.06,-0.11 0.02,-0.04 0.01,-0.07 -0.03,-0.07 -0.04,0 -0.06,-0.03 -0.03,-0.07 0.02,-0.04 0.01,-0.07 -0.03,-0.07 -0.04,0 -0.06,-0.03 -0.04,-0.06 0.02,-0.03 -0.01,-0.08 -0.07,-0.1 -0.06,-0.02 -0.09,-0.07 -0.06,-0.11 0.02,-0.04 0.01,-0.07 -0.03,-0.07 -0.04,0 -0.06,-0.03 -0.03,-0.07 0.02,-0.04 -0.01,-0.09 -0.06,-0.11 -0.06,-0.02 -0.09,-0.06 -0.07,-0.09 0.02,-0.03 -0.01,-0.07 -0.07,-0.09 -0.06,-0.02 -0.09,-0.07 -0.06,-0.11 0.02,-0.04 -0.01,-0.09 -0.06,-0.11 -0.06,-0.02 -0.09,-0.07 -0.07,-0.1 0.02,-0.03 -0.03,-0.09 -0.1,-0.13 -0.08,-0.04 -0.12,-0.1 -0.1,-0.13 0.02,-0.03 -0.02,-0.09 -0.1,-0.13 -0.08,-0.04 -0.12,-0.1 -0.1,-0.13 0.02,-0.03 -0.04,-0.11 -0.13,-0.17 -0.09,-0.06 -0.15,-0.13 -0.14,-0.16 0.09,-0.14 -2.3,-2.39 -2.48,-2.34 -0.03,0.01 -0.08,-0.04 -0.11,-0.09 -0.03,-0.06 -0.09,-0.09 -0.12,-0.07 -0.03,0.02 -0.09,-0.03 -0.13,-0.1 -0.04,-0.08 -0.1,-0.12 -0.13,-0.1 -0.03,0.02 -0.07,-0.01 -0.1,-0.07 -0.02,-0.06 -0.07,-0.09 -0.11,-0.06 -0.04,0.02 -0.07,0.01 -0.07,-0.03 0,-0.04 -0.03,-0.06 -0.07,-0.03 -0.04,0.02 -0.09,-0.01 -0.11,-0.06 -0.02,-0.06 -0.07,-0.09 -0.1,-0.07 -0.03,0.02 -0.09,-0.02 -0.12,-0.08 -0.04,-0.07 -0.07,-0.1 -0.07,-0.08 0,0.02 -0.34,-0.15 -0.76,-0.38 -0.41,-0.24 -1.04,-0.55 -1.39,-0.71 -0.35,-0.15 -0.65,-0.3 -0.67,-0.32 -0.02,-0.02 -0.09,-0.05 -0.17,-0.06 -0.07,-0.01 -0.14,-0.05 -0.15,-0.08 -0.01,-0.03 -0.07,-0.04 -0.13,-0.02 -0.08,0.03 -0.09,0.02 -0.05,-0.05 0.04,-0.07 0.03,-0.08 -0.06,-0.05 -0.06,0.02 -0.11,0.01 -0.11,-0.03 0,-0.04 -0.05,-0.05 -0.1,-0.03 -0.06,0.02 -0.1,0.01 -0.1,-0.03 0,-0.03 -0.05,-0.04 -0.11,-0.02 -0.08,0.03 -0.1,0.02 -0.06,-0.04 0.04,-0.06 0.02,-0.07 -0.1,-0.04 -0.11,0.03 -0.14,0.03 -0.1,-0.03 0.04,-0.06 0.01,-0.07 -0.1,-0.03 -0.11,0.03 -0.14,0.03 -0.1,-0.03 0.04,-0.06 0.01,-0.07 -0.1,-0.03 -0.11,0.04 -0.14,0.03 -0.1,-0.04 0.04,-0.06 0.01,-0.07 -0.09,-0.05 -0.08,0.02 -0.14,0.01 -0.14,-0.03 0,-0.04 -0.06,-0.05 -0.14,-0.02 -0.1,0.03 -0.13,0.02 -0.09,-0.04 0.04,-0.06 0.01,-0.07 -0.09,-0.05 -0.08,0.02 -0.14,0.01 -0.14,-0.03 0,-0.04 -0.06,-0.05 -0.13,-0.02 -0.08,0.03 -0.13,0.01 -0.13,-0.03 0,-0.04 -0.07,-0.06 -0.17,-0.03 -0.1,0.03 -0.17,0.01 -0.17,-0.03 0,-0.04 -0.06,-0.05 -0.13,-0.03 -0.08,0.02 -0.13,0 -0.13,-0.04 0,-0.05 -0.06,-0.06 -0.17,-0.03 -0.1,0.03 -0.17,0.01 -0.17,-0.03 0,-0.05 -0.08,-0.06 -0.21,-0.03 -0.16,0.03 -0.2,0.02 -0.16,-0.04 0.04,-0.06 -0.04,-0.07 -0.34,-0.05 -0.27,0.03 -0.33,0.02 -0.19,-0.02 0.16,-0.05 0.12,-0.06 -0.23,-0.06 -0.32,0 -0.4,0.01 -0.3,0.06 0.1,0.05 0.08,0.06 -0.12,0.03 -0.15,-0.02 -0.25,0 -0.25,0.04 0,0.04 -0.05,0.05 -0.1,0.03 -0.06,-0.02 -0.1,-0.01 -0.1,0.03 0,0.04 -0.03,0.05 -0.07,0.03 -0.04,-0.02 -0.09,0.01 -0.11,0.06 -0.02,0.06 -0.06,0.09 -0.09,0.07 -0.03,-0.02 -0.15,0.07 -0.27,0.2 -0.12,0.13 -0.2,0.23 -0.17,0.23 0.03,0 -0.02,0.06 -0.12,0.14 -0.1,0.08 -0.16,0.16 -0.14,0.19 0.02,0.03 -0.01,0.07 -0.07,0.09 -0.06,0.02 -0.09,0.07 -0.07,0.1 0.02,0.03 -0.01,0.08 -0.07,0.1 -0.06,0.02 -0.09,0.07 -0.07,0.1 0.02,0.03 -0.01,0.08 -0.07,0.1 -0.06,0.02 -0.09,0.07 -0.06,0.11 0.02,0.04 0.01,0.07 -0.03,0.07 -0.04,0 -0.06,0.03 -0.03,0.07 0.02,0.04 0,0.08 -0.05,0.1 -0.05,0.02 -0.1,0.07 -0.1,0.12 -0.01,0.18 -0.2,0.6 -0.23,0.51 -0.02,-0.07 -0.04,-0.06 -0.07,0.02 -0.03,0.08 -0.01,0.11 0.09,0.11 0.17,0 0.29,0.24 0.28,0.57 l -0.01,0.27 0.09,-0.33 c 0.05,-0.18 0.08,-0.36 0.06,-0.39 -0.02,-0.03 0,-0.05 0.04,-0.05 0.04,0 0.06,-0.03 0.04,-0.06 -0.08,-0.13 0.4,-0.93 0.79,-1.32 0.58,-0.58 0.96,-0.72 1.98,-0.72 0.91,0 1.53,0.11 2.78,0.53 3.68,1.22 6.75,3.64 7.88,6.19 0.22,0.49 0.22,0.52 0.22,1.47 0,0.91 -0.01,0.99 -0.18,1.34 -0.64,1.33 -2.6,2.68 -4.11,2.85 -0.15,0.02 -0.51,0.07 -0.8,0.12 -0.48,0.08 -0.5,0.09 -0.23,0.1 0.17,0.01 0.36,0.04 0.44,0.06 0.07,0.03 0.15,0.03 0.17,-0.01 -0.04,-0.03 0.06,-0.1 0.16,-0.15 z m -1.75,0.12 c -0.16,-0.01 -0.41,-0.01 -0.57,0 -0.16,0.01 -0.03,0.03 0.28,0.03 0.32,0 0.45,-0.01 0.29,-0.03 z m -0.94,-0.06 c -0.05,-0.02 -0.14,-0.02 -0.2,0 -0.07,0.02 -0.03,0.03 0.08,0.03 0.11,0 0.17,-0.01 0.12,-0.03 z m 2.13,-0.8 c 2.42,-0.39 4.04,-1.56 4.36,-3.16 0.21,-1.04 -0.41,-2.37 -1.75,-3.79 -1.4,-1.48 -3.14,-2.59 -5.25,-3.36 -2.89,-1.05 -4.44,-0.97 -5.02,0.25 -0.06,0.12 -0.06,0.16 -0.02,0.09 0.77,-1.17 1.96,-1.26 4.64,-0.37 4.68,1.57 7.98,5.12 7.1,7.63 -0.37,1.05 -1.64,1.98 -3.35,2.45 -0.62,0.17 -0.75,0.18 -2.01,0.18 -1.23,0 -1.39,-0.01 -1.98,-0.17 -0.64,-0.18 -1.26,-0.43 -1.81,-0.76 -0.21,-0.12 -0.25,-0.14 -0.13,-0.04 0.23,0.19 1.24,0.7 1.65,0.84 0.95,0.32 2.39,0.4 3.57,0.21 z m 0.57,-0.42 c 2,-0.54 3.26,-1.59 3.42,-2.87 0.2,-1.62 -1.4,-3.82 -3.92,-5.38 -1.35,-0.84 -3.32,-1.63 -4.82,-1.94 -0.9,-0.18 -1.66,-0.16 -2.08,0.08 -0.84,0.46 -1.17,1.65 -1.11,3.93 0.03,1.03 0.05,1.26 0.21,1.77 0.34,1.13 0.89,2.02 1.73,2.83 0.94,0.9 1.88,1.39 3.25,1.67 0.69,0.15 2.62,0.1 3.32,-0.09 z m -6,-0.77 c 0,-0.01 -0.05,-0.07 -0.12,-0.12 -0.11,-0.08 -0.11,-0.08 -0.03,0.03 0.1,0.11 0.15,0.14 0.15,0.09 z m -0.33,-0.27 c 0,-0.01 -0.07,-0.08 -0.15,-0.15 l -0.15,-0.13 0.13,0.15 c 0.11,0.15 0.17,0.19 0.17,0.13 z m -1.14,-1.21 c -0.42,-0.55 -0.82,-1.37 -1.05,-2.15 -0.17,-0.56 -0.18,-0.69 -0.19,-1.94 0,-0.74 0.01,-1.54 0.04,-1.77 l 0.04,-0.44 -0.1,0.37 c -0.08,0.27 -0.1,0.72 -0.11,1.74 0,1.22 0.01,1.43 0.14,1.91 0.24,0.87 0.66,1.67 1.27,2.43 0.36,0.44 0.33,0.34 -0.04,-0.15 z m -1.09,-6.48 c -0.02,-0.05 -0.04,-0.04 -0.04,0.04 0,0.07 0.01,0.11 0.04,0.09 0.01,-0.02 0.02,-0.08 0,-0.13 z m 1.34,-4.04 c -0.02,-0.02 -0.08,-0.03 -0.13,-0.01 -0.05,0.02 -0.04,0.04 0.04,0.04 0.07,0.01 0.11,-0.01 0.09,-0.03 z m 0.64,-0.01 c -0.05,-0.02 -0.14,-0.02 -0.2,0 -0.07,0.02 -0.03,0.03 0.08,0.03 0.11,0.01 0.16,-0.01 0.12,-0.03 z"
   inkscape:connector-curvature="0"
   style="fill:#238d3d;stroke:#d2d2d2;stroke-width:0.0418;stroke-linecap:round;stroke-linejoin:round;stroke-miterlimit:11.33860016"
   sodipodi:nodetypes="cccccccccccccccccsccsscscsscsccccccccccscssscssscsccccscscccssscscssscsccssccscsssscccscsccsccscsccscscssscscscscssccscscscssscscscsccsscscsscsssssssssscscsccsscccsscssccsccccccccsscscsscccccccccscccccccccccccccsccsscccsccccccccccsscssscscccc" />
<path
   id="path5077-5_1_"
   class="st10"
   d="m 58.04,110.96 c -0.68,-0.63 -5.26,-4.04 -5.86,-6.21 -0.72,-2.6 -0.01,-5.89 1.8,-8.28 1.81,-2.4 7.04,-6.32 11.22,-8.43 5.64,-2.84 15.46,-6.06 22.44,-7.37 2.87,-0.54 10.4,-0.88 12.5,-0.68 0.92,0.09 1.77,0.61 2.2,0.83 1.21,0.62 1.64,2.07 1.64,3.06 0,2.33 -3.06,5.61 -7.97,8.11 -1.26,0.64 -1.63,0.64 -1.63,0.64 -0.02,-0.11 0.01,-0.68 -0.12,-0.9 -0.61,-1.06 -2.01,-1.52 -3.92,-0.93 -0.81,0.19 -5.05,1.93 -8.84,4.16 -3.79,2.23 -7.89,5.14 -11.55,7.98 -3.8,2.95 -6.59,4.9 -8.28,7.9 -0.48,1.2 0.18,2.62 -0.08,2.61 0.02,0.01 -2.59,-1.47 -3.55,-2.49 z"
   inkscape:connector-curvature="0"
   style="fill:#6eba75"
   sodipodi:nodetypes="cccccccsccccscccc" />
<path
   id="path5081-0_1_"
   class="st10"
   d="m 78.054955,159.23664 c -0.58,-0.31 -2.88,-1.37 -5.11,-2.38 -10.37,-4.65 -16.51,-8.32 -22.57,-13.46 l -8.819939,-8.78835 9.697357,3.63922 c 7.096724,2.66326 15.852582,3.53913 21.352582,4.33913 4.8,0.69 7.39,1.37 9.81,2.55 4.15,2.03 6.68,6.03 5.87,9.26 -0.69,2.75 -2.5,4.33 -5.76,5.02 -2.42,0.52 -3.21,0.49 -4.47,-0.18 z"
   inkscape:connector-curvature="0"
   style="fill:#6eba75"
   sodipodi:nodetypes="ccccsccccc" />
<linearGradient
   id="path5098-4_2_"
   gradientUnits="userSpaceOnUse"
   x1="102.0873"
   y1="141.4283"
   x2="169.1793"
   y2="141.4283">
	<stop
   offset="0"
   style="stop-color:#6EBA75"
   id="stop18" />
	<stop
   offset="1"
   style="stop-color:#36AB4C"
   id="stop20" />
</linearGradient>
<path
   id="path5098-4_1_"
   class="st11"
   d="m 102.2,129.23 c -0.1,-1.39 2.05,-2.27 3.45,-2.39 2.52,-0.22 4.58,1.95 6.73,3.28 2.51,1.56 4.23,3.94 6.5,5.83 1.88,1.56 3.71,3.19 5.57,4.77 2.29,1.95 4.03,4.91 6.89,5.83 3.29,1.06 6.88,-0.82 10.34,-0.8 2.93,0.02 5.87,0.27 8.75,0.8 6.14,1.13 13.03,1.3 18.03,5.04 0.33,0.25 0.92,0.73 0.66,1.06 -0.87,1.13 -1.52,1.27 -3,1.61 -1.48,0.34 -3.01,0.92 -4.36,1.17 -1.91,0.36 -4.19,0.6 -6.14,0.59 -1.95,-0.02 -3.92,-0.17 -5.85,-0.32 -3.4,-0.27 -6.84,-0.66 -10.08,-1.72 -2.91,-0.95 -5.5,-2.69 -8.22,-4.11 -3.12,-1.63 -6.58,-2.78 -9.28,-5.04 -2.44,-2.03 -3.56,-5.36 -5.97,-7.42 -2.29,-1.96 -4.6,-3.46 -7.26,-4.87 -0.28,-0.15 -0.59,-0.27 -0.92,-0.38 -0.33,-0.11 -0.68,-0.2 -1.05,-0.29 -0.36,-0.09 -0.73,-0.16 -1.1,-0.24 -0.37,-0.08 -0.73,-0.16 -1.08,-0.25 -0.35,-0.09 -0.68,-0.19 -0.98,-0.32 -0.3,-0.12 -0.58,-0.26 -0.81,-0.43 -0.23,-0.17 -0.43,-0.36 -0.57,-0.6 -0.14,-0.22 -0.56,-0.88 -0.25,-0.8 z"
   inkscape:connector-curvature="0"
   style="fill:url(#path5098-4_2_);stroke:#1e1e1c;stroke-miterlimit:11.33860016"
   sodipodi:nodetypes="ccccccccccsccccccccscsscscc" />
<path
   id="path5102-8"
   class="st12"
   d="m 108.44,38 c -48.76,0.7 -88,40.9 -87.53,89.66 0.47,48.76 40.48,88.2 89.24,87.96 48.76,-0.23 88.39,-40.05 88.39,-88.82 0,-0.27 -0.01,-0.54 -0.03,-0.81 0.02,-0.3 0.02,-0.6 0.01,-0.9 C 197.59,76.35 157.2,37.3 108.44,38 Z m 0.31,21.26 c 37.3,-0.54 67.8,28.95 68.52,66.25 0,0.18 0.01,0.37 0.03,0.55 v 0.01 c -0.01,0.25 -0.02,0.49 -0.02,0.74 0,37.31 -29.93,67.38 -67.23,67.56 -37.31,0.18 -67.52,-29.6 -67.88,-66.91 -0.36,-37.3 29.28,-67.66 66.58,-68.2 z"
   inkscape:connector-curvature="0"
   style="fill:#3f3f3f"
   sodipodi:nodetypes="sscsccsscccsccs" />
<path
   class="st10"
   d="M 35.76,133.41 C 33.97,87.45 71.4,55.67 117.54,51.63 c 9.25,-0.81 18.19,1.57 26.51,4.42 -11.56,-6.25 -24.79,-9.8 -38.85,-9.8 -45.17,0 -81.78,36.61 -81.78,81.78 0,35.88 23.12,66.35 55.27,77.36 -25.56,-13.83 -41.71,-40.9 -42.93,-71.98 z"
   id="path25"
   inkscape:connector-curvature="0"
   style="fill:#6eba75"
   sodipodi:nodetypes="cccsscc" />
<path
   class="st13"
   d="m 147.29,53.53 c 23.09,13.74 38.57,38.93 38.57,67.74 0,43.51 -35.27,78.78 -78.78,78.78 -12.11,0 -23.59,-2.74 -33.84,-7.63 11.77,7.01 25.52,11.04 40.22,11.04 43.51,0 78.78,-35.27 78.78,-78.78 -0.01,-31.39 -18.38,-58.49 -44.95,-71.15 z"
   id="path27"
   inkscape:connector-curvature="0"
   style="fill:#ffffff"
   sodipodi:nodetypes="csscscc" />
<path
   class="st14"
   d="m 161.85,145.48 c 4.46,0.91 8.12,3.23 12.3,4.08 1.34,-0.94 2.36,-1.83 2.73,-2.45 0.75,-1.26 0.8,-3.4 0.2,-7.44 -0.37,-2.47 -0.68,-3.26 -2.09,-5.22 -1.48,-2.07 -2.46,-3.49 -3.1,-4.5 -3.09,1.49 -6.22,2.2 -6.63,1 -0.72,-2.08 -1.07,-4.23 -1.24,-6.4 -2.26,1.13 -4.48,1.71 -5.63,1.19 -0.7,0.12 -1.33,0.11 -1.83,-0.1 -9.66,-3.94 -19.58,-7.15 -29.5,-10.35 -1.83,2.27 -3.7,4.51 -5.56,6.76 -0.66,2.34 -1.43,4.69 -2.28,7.16 -0.09,0.25 -0.17,0.5 -0.25,0.75 3.96,4.75 7.94,9.52 12.71,13.38 0.51,0.29 1.04,0.56 1.56,0.84 0.74,-0.12 1.47,-0.14 2.18,-0.01 0.89,0.16 1.8,0.34 2.71,0.54 6.87,-1.25 14.3,-1.27 19.59,1.3 1.39,-0.53 2.81,-0.8 4.13,-0.53 z m 0.35,-4.1 c 3.54,2.27 8.82,4.12 10.28,3.6 1.71,-0.61 2.57,-2.21 2.56,-4.73 -0.01,-2.16 0.24,-2.73 0.81,-1.81 0.42,0.68 0.27,3.55 -0.24,4.54 -0.25,0.49 -0.9,1.36 -1.43,1.93 v 0 c -0.8,0.85 -1.28,1.04 -2.7,1.01 -1.74,-0.03 -4.46,-0.84 -6.86,-2.05 -2.53,-1.27 -5.66,-3.42 -5.66,-3.89 -0.01,-0.67 0.04,-0.65 3.24,1.4 z m -10.98,-1.9 c -0.39,0.43 -1.32,0.95 -2.07,1.16 -2.02,0.56 -5.7,0.49 -5.94,-0.12 -0.12,-0.31 -0.6,-0.44 -1.25,-0.35 -2.76,0.41 -6.19,-1.64 -7.7,-4.59 -0.63,-1.24 -0.74,-1.99 -0.59,-3.93 0.16,-2.02 0.11,-2.33 -0.33,-1.96 -0.42,0.35 -0.53,0.27 -0.53,-0.41 0,-1.02 2.3,-3.42 3.28,-3.41 1.36,0.01 4.52,1.03 6.92,2.25 3.13,1.58 5.62,4.17 7.46,7.73 1.43,2.8 1.44,2.86 0.75,3.63 z"
   id="path29"
   inkscape:connector-curvature="0"
   style="fill:#36ab4c"
   sodipodi:nodetypes="ccccccccccccccccccccccccccccccccccccccscccc" />
</svg>